 <svg  version="1.0" xmlns="http://www.w3.org/2000/svg"  width="450.000000pt" height="450.000000pt" viewBox="0 0 450.000000 450.000000"  preserveAspectRatio="xMidYMid meet">  <g transform="translate(0.000000,450.000000) scale(0.100000,-0.100000)" fill="#000000" stroke="none"> <path d="M670 2724 l0 -655 723 -737 c397 -405 778 -794 846 -864 68 -71 127 -128 131 -128 4 0 8 152 8 338 1 250 -2 343 -11 358 -6 12 -163 177 -347 365 -185 189 -452 463 -593 608 l-257 263 0 205 c0 126 4 203 10 201 8 -3 258 -240 778 -738 118 -113 241 -230 275 -261 l62 -56 535 518 535 518 3 -1155 2 -1154 260 0 260 0 0 1515 0 1515 -302 0 -303 0 -505 -505 -506 -506 -494 505 -495 504 -307 1 -308 1 0 -656z"/> </g> </svg> 